# AST/ASF file generated using VICON BodyLanguage
# -----------------------------------------------
:version 1.10
:name VICON
:units
  mass 1.0
  length 0.45
  angle deg
:documentation
   .ast/.asf automatically generated from VICON data using
   VICON BodyBuilder and BodyLanguage model FoxedUp or BRILLIANT.MOD
:root
   order TX TY TZ RX RY RZ
   axis XYZ
   position 0 0 0  
   orientation 0 0 0 
:bonedata
  begin
     id 1 
     name lhipjoint
     direction 0.722297 -0.617336 0.311742 
     length 2.6635 
     axis 0 0 0  XYZ
  end
  begin
     id 2 
     name lfemur
     direction 0.34202 -0.939693 0  
     length 7.39349  
     axis 0 0 20  XYZ
    dof rx ry rz
    limits (-160.0 20.0)
           (-70.0 70.0)
           (-60.0 70.0)
  end
  begin
     id 3 
     name ltibia
     direction 0.34202 -0.939693 0   
     length 7.36294   
     axis 0 0 20   XYZ
    dof rx
    limits (-10.0 170.0)
  end
  begin
     id 4 
     name lfoot
     direction 0.104879 -0.288152 0.951824   
     length 2.16981   
     axis -90 7.62852e-016 20   XYZ
    dof rx rz
    limits (-45.0 90.0)
           (-70.0 20.0)
  end
  begin
     id 5 
     name ltoes
     direction 1.53586e-011 -4.21895e-011 1   
     length 1.08218   
     axis -90 7.62852e-016 20   XYZ
    dof rx
    limits (-90.0 20.0)
  end
  begin
     id 6 
     name rhipjoint
     direction -0.75102 -0.589393 0.297631   
     length 2.78977  
     axis 0 0 0  XYZ 
  end
  begin
     id 7 
     name rfemur
     direction -0.34202 -0.939693 0   
     length 7.46076   
     axis 0 0 -20   XYZ
    dof rx ry rz
    limits (-160.0 20.0)
           (-70.0 70.0)
           (-70.0 60.0)
  end
  begin
     id 8 
     name rtibia
     direction -0.34202 -0.939693 0   
     length 7.31726   
     axis 0 0 -20   XYZ
    dof rx
    limits (-10.0 170.0)
 end
 begin
     id 9 
     name rfoot
     direction -0.107991 -0.296704 0.948844   
     length 2.09388  
     axis -90 -7.62852e-016 -20   XYZ
    dof rx rz
    limits (-45.0 90.0)
           (-20.0 70.0)
  end
  begin
     id 10 
     name rtoes
     direction -1.53559e-011 -4.21911e-011 1   
     length 1.04433   
     axis -90 -7.62852e-016 -20   XYZ
    dof rx
    limits (-90.0 20.0)
  end
  begin
     id 11 
     name lowerback
     direction 0.0165164 0.98272 0.184358   
     length 1.71896   
     axis 0 0 0   XYZ
    dof rx ry rz
    limits (-20.0 45.0)
           (-30.0 30.0)
           (-30.0 30.0)
  end
  begin
     id 12 
     name upperback
     direction -0.00887249 0.992297 0.123566   
     length 1.71504   
     axis 0 0 0   XYZ
    dof rx ry rz
    limits (-20.0 45.0)
           (-30.0 30.0)
           (-30.0 30.0)
  end
  begin
     id 13 
     name thorax
     direction -0.0157026 0.998908 0.0440032   
     length 1.77022   
     axis 0 0 0   XYZ
    dof rx ry rz
    limits (-20.0 45.0)
           (-30.0 30.0)
           (-30.0 30.0)
  end
  begin
     id 14 
     name lowerneck
     direction -0.0238856 0.998137 0.0561411   
     length 1.89341   
     axis 0 0 0   XYZ
    dof rx ry rz
    limits (-20.0 45.0)
           (-30.0 30.0)
           (-30.0 30.0)
  end
  begin
     id 15 
     name upperneck
     direction 0.0276574 0.952253 -0.304056   
     length 1.86999   
     axis 0 0 0   XYZ
    dof rx ry rz
    limits (-20.0 45.0)
           (-30.0 30.0)
           (-30.0 30.0)
  end
  begin
     id 16
     name head
     direction 0.00800083 0.994258 -0.106712  
     length 1.91492  
     axis 0 0 0   XYZ
    dof rx ry rz
    limits (-20.0 45.0)
           (-30.0 30.0)
           (-30.0 30.0)
  end
  begin
     id 17 
     name lclavicle
     direction 0.97203 0.225407 0.06595  
     length 3.34889  
     axis 0 0 0   XYZ
    dof ry rz
    limits (-20.0 10.0)
           (0.0 20.0)
  end
  begin
     id 18 
     name lhumerus
     direction 1 -4.48973e-011 2.20267e-027   
     length 4.85645   
     axis 180 -30 -90   XYZ
    dof rx ry rz
    limits (-60.0 90.0)
           (-90.0 90.0)
           (-90.0 90.0)
  end
  begin
     id 19
     name lradius
     direction 1 -4.4897e-011 4.60472e-027   
     length 2.79874   
     axis 180 -30 -90   XYZ
    dof rx
    limits (-10.0 170.0)
  end
  begin
     id 20
     name lwrist
     direction 1 -4.48952e-011 1.14928e-026   
     length 1.39937   
     axis -6.29373e-015 90 90   XYZ
    dof ry
    limits (-180.0 0.0)
 end
  begin
     id 21 
     name lhand
     direction 1 -4.48967e-011 2.29886e-026   
     length 0.573398   
     axis -1.46689e-014 90 90   XYZ
    dof rx rz
    limits (-90.0 90.0)
           (-45.0 45.0)
  end
  begin
     id 22 
     name lfingers
     direction 1 -4.48955e-011 4.59726e-026   
     length 0.462289   
     axis -2.93383e-014 90 90   XYZ
    dof rx
    limits (0.0 90.0)
  end
  begin
     id 23
     name lthumb
     direction 0.707107 -6.34866e-011 0.707107   
     length 0.663757   
     axis -90 45 5.69224e-014   XYZ
    dof rx rz
    limits (-45.0 45.0)
           (-45.0 45.0)
  end
  begin
     id 24 
     name rclavicle
     direction -0.981571 0.157346 0.108443   
     length 3.35257  
     axis 0 0 0   XYZ 
    dof ry rz
    limits (-10.0 20.0)
           (-20.0 0.0)
  end
  begin
     id 25 
     name rhumerus
     direction -1 -4.48967e-011 8.58308e-029  
     length 4.67018   
     axis 180 30 90   XYZ
    dof rx ry rz
    limits (-90.0 60.0)
           (-90.0 90.0)
           (-90.0 90.0)
  end
  begin
     id 26 
     name rradius
     direction -1 -4.48958e-011 4.52548e-027   
     length 2.65534   
     axis 180 30 90   XYZ
    dof rx
    limits (-10.0 170.0)
  end
  begin
     id 27 
     name rwrist
     direction -1 -4.48977e-011 1.14952e-026   
     length 1.32767   
     axis -6.29373e-015 -90 -90   XYZ
    dof ry
    limits (-180.0 0.0)
  end
  begin
     id 28
     name rhand
     direction -1 -4.48924e-011 2.29804e-026   
     length 0.594069   
     axis -1.46689e-014 -90 -90   XYZ
    dof rx rz
    limits (-90.0 90.0)
           (-45.0 45.0)
  end
  begin
     id 29
     name rfingers
     direction -1 -4.48998e-011 4.59888e-026   
     length 0.478954   
     axis -2.93383e-014 -90 -90   XYZ
    dof rx
    limits (0.0 90.0)
  end
  begin
     id 30
     name rthumb
     direction -0.707107 -6.34933e-011 0.707107   
     length 0.687685   
     axis -90 -45 -5.69224e-014   XYZ
    dof rx rz
    limits (-45.0 45.0)
           (-45.0 45.0)
  end
:hierarchy
  begin
    root lhipjoint rhipjoint lowerback
    lhipjoint lfemur
    lfemur ltibia
    ltibia lfoot
    lfoot ltoes
    rhipjoint rfemur
    rfemur rtibia
    rtibia rfoot
    rfoot rtoes
    lowerback upperback
    upperback thorax
    thorax lowerneck lclavicle rclavicle
    lowerneck upperneck
    upperneck head
    lclavicle lhumerus
    lhumerus lradius
    lradius lwrist
    lwrist lhand lthumb
    lhand lfingers
    rclavicle rhumerus
    rhumerus rradius
    rradius rwrist
    rwrist rhand rthumb
    rhand rfingers
  end

#!OML:ASF E:\pregnant2\Project 1\Capture day 1\Session 1\pregnant2.ASF
:FULLY-SPECIFIED
:DEGREES
426
root 9.24077 11.2708 18.1595 28.0755 1.20919 -6.66583
lowerback -51.1669 2.7076 8.28502
upperback -13.515 -1.19261 2.29641
thorax 5.31187 -0.676238 -1.78983
lowerneck -13.2883 -3.61941 -2.88162
upperneck 43.3738 -7.0094 3.97393
head 19.0971 -2.78887 1.06725
rclavicle -3.93594e-014 1.15295e-014
rhumerus -42.0139 32.7794 -83.8643
rradius 69.7677
rwrist 29.8268
rhand 13.8872 -12.23
rfingers 7.12502
rthumb 38.8032 -37.8061
lclavicle -3.93594e-014 1.15295e-014
lhumerus -44.6648 -6.97859 82.2359
lradius 70.1091
lwrist -32.8066
lhand 18.6045 26.2979
lfingers 7.12502
lthumb 43.2329 50.461
rfemur -106.927 8.47683 24.9923
rtibia 74.27
rfoot 6.46784 -13.5608
rtoes 7.89162
lfemur -134.898 -32.9419 -49.7525
ltibia 89.9045
lfoot 16.0739 -14.3912
ltoes -23.8133
427
root 9.24182 11.2712 18.16 28.0755 1.20979 -6.66015
lowerback -51.158 2.708 8.27699
upperback -13.5302 -1.18651 2.30004
thorax 5.2949 -0.673737 -1.78
lowerneck -13.2442 -3.61018 -2.88653
upperneck 43.4295 -6.98373 3.94316
head 19.117 -2.78385 1.06006
rclavicle 3.22031e-014 -1.19271e-014
rhumerus -42.0586 32.8017 -83.8554
rradius 69.8048
rwrist 29.7597
rhand 13.9072 -12.2406
rfingers 7.12502
rthumb 38.822 -37.8113
lclavicle 3.22031e-014 -1.19271e-014
lhumerus -44.6734 -6.97399 82.2584
lradius 70.101
lwrist -32.7982
lhand 18.6183 26.3003
lfingers 7.12502
lthumb 43.2459 50.4588
rfemur -106.927 8.46946 24.9868
rtibia 74.2753
rfoot 6.46508 -13.5544
rtoes 7.8626
lfemur -134.883 -32.9472 -49.7682
ltibia 89.9018
lfoot 16.0828 -14.4254
ltoes -23.8941
428
root 9.24287 11.2714 18.1602 28.0683 1.20717 -6.65242
lowerback -51.132 2.70593 8.26605
upperback -13.5489 -1.18015 2.30598
thorax 5.27216 -0.671228 -1.7667
lowerneck -13.1995 -3.59932 -2.88957
upperneck 43.4886 -6.95424 3.90797
head 19.1384 -2.77756 1.05118
rclavicle 1.27222e-014 -2.10712e-014
rhumerus -42.105 32.8271 -83.8451
rradius 69.8444
rwrist 29.6908
rhand 13.9245 -12.2509
rfingers 7.12502
rthumb 38.8384 -37.817
lclavicle 1.27222e-014 -2.10712e-014
lhumerus -44.6817 -6.9669 82.2824
lradius 70.0917
lwrist -32.7919
lhand 18.6329 26.2994
lfingers 7.12502
lthumb 43.2594 50.453
rfemur -106.921 8.46227 24.9815
rtibia 74.2817
rfoot 6.46391 -13.546
rtoes 7.82897
lfemur -134.866 -32.9464 -49.7805
ltibia 89.8977
lfoot 16.0886 -14.4497
ltoes -23.9402
429
root 9.24379 11.2714 18.1603 28.0564 1.20248 -6.64268
lowerback -51.095 2.69925 8.25018
upperback -13.5708 -1.17591 2.31582
thorax 5.24499 -0.669582 -1.74814
lowerneck -13.153 -3.58674 -2.89156
upperneck 43.5542 -6.92049 3.86756
head 19.1628 -2.77008 1.04051
rclavicle -1.90833e-014 -6.36111e-015
rhumerus -42.1544 32.8579 -83.8347
rradius 69.8868
rwrist 29.6234
rhand 13.94 -12.2616
rfingers 7.12502
rthumb 38.853 -37.8236
lclavicle -1.90833e-014 -6.36111e-015
lhumerus -44.6904 -6.95693 82.3074
lradius 70.08
lwrist -32.7856
lhand 18.6504 26.2993
lfingers 7.12502
lthumb 43.2758 50.447
rfemur -106.912 8.45501 24.9768
rtibia 74.2895
rfoot 6.4639 -13.5374
rtoes 7.79461
lfemur -134.848 -32.9415 -49.7897
ltibia 89.8929
lfoot 16.0881 -14.4604
ltoes -23.9517
430
root 9.24453 11.2713 18.1604 28.0387 1.19475 -6.63031
lowerback -51.0442 2.68681 8.22672
upperback -13.5977 -1.17356 2.33086
thorax 5.21114 -0.668644 -1.72168
lowerneck -13.1039 -3.57314 -2.89384
upperneck 43.6271 -6.88285 3.821
head 19.1907 -2.76191 1.02778
rclavicle -7.95139e-016 -1.86858e-014
rhumerus -42.2102 32.8935 -83.8237
rradius 69.9339
rwrist 29.5585
rhand 13.9579 -12.2715
rfingers 7.12502
rthumb 38.8698 -37.8287
lclavicle -7.95139e-016 -1.86858e-014
lhumerus -44.7027 -6.94408 82.3355
lradius 70.0684
lwrist -32.7765
lhand 18.6686 26.2988
lfingers 7.12502
lthumb 43.2929 50.4405
rfemur -106.897 8.4482 24.9718
rtibia 74.2978
rfoot 6.46687 -13.527
rtoes 7.76031
lfemur -134.828 -32.9313 -49.7994
ltibia 89.8878
lfoot 16.0831 -14.4549
ltoes -23.9096
431
root 9.24505 11.2711 18.1604 28.0217 1.18619 -6.61597
lowerback -50.9911 2.66815 8.19572
upperback -13.6281 -1.17505 2.35176
thorax 5.17365 -0.669107 -1.68712
lowerneck -13.0463 -3.5592 -2.89055
upperneck 43.704 -6.84038 3.75993
head 19.2173 -2.75305 1.00808
rclavicle -3.97569e-015 -2.5842e-014
rhumerus -42.2714 32.9354 -83.8127
rradius 69.9849
rwrist 29.4956
rhand 13.9783 -12.2825
rfingers 7.12502
rthumb 38.8891 -37.8343
lclavicle -3.97569e-015 -2.5842e-014
lhumerus -44.7197 -6.92736 82.3664
lradius 70.0563
lwrist -32.7658
lhand 18.69 26.3033
lfingers 7.12502
lthumb 43.3128 50.4378
rfemur -106.884 8.44132 24.9659
rtibia 74.3058
rfoot 6.4717 -13.5162
rtoes 7.72952
lfemur -134.811 -32.9203 -49.8073
ltibia 89.8824
lfoot 16.076 -14.4472
ltoes -23.8789
432
root 9.24544 11.2712 18.1605 28.0076 1.17873 -6.60144
lowerback -50.9437 2.64559 8.16045
upperback -13.659 -1.18009 2.37686
thorax 5.13635 -0.6708 -1.64739
lowerneck -12.9912 -3.54219 -2.8929
upperneck 43.7933 -6.79447 3.70433
head 19.2534 -2.74277 0.992839
rclavicle -3.61788e-014 2.70347e-014
rhumerus -42.3362 32.9818 -83.8012
rradius 70.0391
rwrist 29.4355
rhand 14.0091 -12.2922
rfingers 7.12502
rthumb 38.9182 -37.8357
lclavicle -3.61788e-014 2.70347e-014
lhumerus -44.7396 -6.9081 82.399
lradius 70.0442
lwrist -32.754
lhand 18.709 26.3089
lfingers 7.12502
lthumb 43.3306 50.4369
rfemur -106.873 8.43397 24.9599
rtibia 74.3113
rfoot 6.47596 -13.5066
rtoes 7.71018
lfemur -134.796 -32.9099 -49.8135
ltibia 89.8761
lfoot 16.0676 -14.4338
ltoes -23.8259
433
root 9.2457 11.2714 18.1603 27.9924 1.17257 -6.58701
lowerback -50.8993 2.61949 8.12176
upperback -13.6885 -1.18841 2.40552
thorax 5.1012 -0.673555 -1.60354
lowerneck -12.9377 -3.52214 -2.90232
upperneck 43.8953 -6.74599 3.6571
head 19.2993 -2.73129 0.983578
rclavicle 2.10712e-014 -1.31198e-014
rhumerus -42.3999 33.0326 -83.7879
rradius 70.0936
rwrist 29.3762
rhand 14.0413 -12.3013
rfingers 7.12502
rthumb 38.9485 -37.8361
lclavicle 2.10712e-014 -1.31198e-014
lhumerus -44.7607 -6.88654 82.4331
lradius 70.0327
lwrist -32.7405
lhand 18.7283 26.3169
lfingers 7.12502
lthumb 43.3486 50.4385
rfemur -106.861 8.42666 24.952
rtibia 74.3146
rfoot 6.47821 -13.5001
rtoes 7.71001
lfemur -134.78 -32.8997 -49.8197
ltibia 89.8697
lfoot 16.063 -14.4222
ltoes -23.7699
434
root 9.24596 11.2717 18.1597 27.977 1.16966 -6.57521
lowerback -50.8573 2.59067 8.08332
upperback -13.7175 -1.20076 2.43825
thorax 5.06678 -0.67788 -1.55696
lowerneck -12.8891 -3.49862 -2.91649
upperneck 44.0128 -6.69374 3.61493
head 19.3576 -2.71812 0.978483
rclavicle -9.14409e-015 1.23246e-014
rhumerus -42.4615 33.0895 -83.7732
rradius 70.1467
rwrist 29.3161
rhand 14.073 -12.3093
rfingers 7.12502
rthumb 38.9783 -37.8355
lclavicle -9.14409e-015 1.23246e-014
lhumerus -44.7828 -6.8622 82.469
lradius 70.021
lwrist -32.7268
lhand 18.7436 26.3241
lfingers 7.12502
lthumb 43.3629 50.4405
rfemur -106.847 8.41917 24.9448
rtibia 74.3142
rfoot 6.47917 -13.4969
rtoes 7.72204
lfemur -134.761 -32.89 -49.8242
ltibia 89.8624
lfoot 16.0645 -14.4151
ltoes -23.7108
435
root 9.24616 11.2722 18.1591 27.9642 1.17073 -6.56648
lowerback -50.8253 2.56092 8.04646
upperback -13.7425 -1.21647 2.47297
thorax 5.03778 -0.683363 -1.51003
lowerneck -12.8484 -3.47192 -2.93979
upperneck 44.1453 -6.63975 3.58479
head 19.4299 -2.70381 0.981319
rclavicle -3.57812e-014 7.15625e-015
rhumerus -42.5154 33.1486 -83.7551
rradius 70.195
rwrist 29.2558
rhand 14.1012 -12.3166
rfingers 7.12502
rthumb 39.005 -37.8352
lclavicle -3.57812e-014 7.15625e-015
lhumerus -44.8016 -6.8359 82.5053
lradius 70.0084
lwrist -32.7135
lhand 18.762 26.3288
lfingers 7.12502
lthumb 43.3801 50.439
rfemur -106.834 8.41123 24.9402
rtibia 74.3121
rfoot 6.47655 -13.4969
rtoes 7.74787
lfemur -134.744 -32.8838 -49.8242
ltibia 89.8559
lfoot 16.0738 -14.4215
ltoes -23.7083
